<svg xmlns="http://www.w3.org/2000/svg" width="35.156" height="35.13" viewBox="0 0 35.156 35.13">
  <metadata><?xpacket begin="﻿" id="W5M0MpCehiHzreSzNTczkc9d"?>
<x:xmpmeta xmlns:x="adobe:ns:meta/" x:xmptk="Adobe XMP Core 5.6-c142 79.160924, 2017/07/13-01:06:39        ">
   <rdf:RDF xmlns:rdf="http://www.w3.org/1999/02/22-rdf-syntax-ns#">
      <rdf:Description rdf:about=""/>
   </rdf:RDF>
</x:xmpmeta>
                                                                                                    
                                                                                                    
                                                                                                    
                                                                                                    
                                                                                                    
                                                                                                    
                                                                                                    
                                                                                                    
                                                                                                    
                                                                                                    
                                                                                                    
                                                                                                    
                                                                                                    
                                                                                                    
                                                                                                    
                                                                                                    
                                                                                                    
                                                                                                    
                                                                                                    
                                                                                                    
                           
<?xpacket end="w"?></metadata>
<defs>
    <style>
      .cls-1 {
        fill: #fff;
        fill-rule: evenodd;
      }
    </style>
  </defs>
  <path id="iPad-Icon" class="cls-1" d="M292.6,1777.7v19.77a2.193,2.193,0,0,0,2.2,2.19h26.355a2.193,2.193,0,0,0,2.2-2.19V1777.7a2.2,2.2,0,0,0-2.2-2.2H294.791A2.2,2.2,0,0,0,292.6,1777.7Zm3.295,1.1v17.57h23.06V1778.8H295.89Zm-3.295-3.3h20.864v20.87H292.6V1775.5Zm-2.2-10.98h19.766a2.2,2.2,0,0,1,2.2,2.2v26.35a2.195,2.195,0,0,1-2.2,2.2H290.4a2.195,2.195,0,0,1-2.2-2.2v-26.35A2.2,2.2,0,0,1,290.4,1764.52Zm1.1,3.3h17.57v23.06H291.5v-23.06Zm8.785,24.16a1.1,1.1,0,1,1-1.1,1.09A1.1,1.1,0,0,1,300.282,1791.98Zm20.864-5.49a1.1,1.1,0,1,1-1.1,1.09A1.1,1.1,0,0,1,321.146,1786.49Z" transform="translate(-288.188 -1764.53)"/>
</svg>
